<svg width="50" height="58" viewBox="0 0 50 58" fill="none" xmlns="http://www.w3.org/2000/svg">
<path d="M41.156 7.12475C40.9312 7.12532 40.7104 7.06555 40.5166 6.95168C35.1828 4.09607 30.5713 2.8846 25.0427 2.8846C19.5418 2.8846 14.3186 4.24029 9.56763 6.95168C8.89579 7.33147 8.06771 7.06706 7.67831 6.36998C7.5045 6.03354 7.46529 5.64354 7.56865 5.27922C7.672 4.91491 7.91017 4.6036 8.23477 4.40855C13.3587 1.50244 19.152 -0.017041 25.0427 0.000144169C30.9595 0.000144169 36.1275 1.35584 41.7954 4.38452C42.1261 4.56634 42.3723 4.87054 42.4813 5.23183C42.5903 5.59313 42.5533 5.98275 42.3783 6.3171C42.2731 6.55448 42.102 6.75673 41.8854 6.89987C41.6688 7.04301 41.4156 7.12106 41.156 7.12475ZM1.39981 22.2681C1.11115 22.2661 0.830074 22.1755 0.594568 22.0085C0.288164 21.7808 0.0820978 21.4431 0.019774 21.0665C-0.0425497 20.6898 0.0437347 20.3037 0.260452 19.9894C3.0115 15.9512 6.5101 12.7783 10.6793 10.5573C19.4024 5.88924 30.5713 5.85559 39.322 10.5284C43.49 12.7494 46.9898 15.8935 49.7409 19.9029C49.9567 20.2175 50.0425 20.6033 49.9802 20.9797C49.9179 21.3561 49.7124 21.6937 49.4068 21.922C49.2585 22.0328 49.089 22.1121 48.9089 22.1548C48.7287 22.1975 48.5417 22.2028 48.3594 22.1704C48.1772 22.1379 48.0035 22.0684 47.8492 21.9662C47.6948 21.8639 47.5631 21.7311 47.4622 21.5759C44.9623 17.9415 41.7954 15.0858 38.0444 13.0956C30.0713 8.85542 19.8747 8.85542 11.9293 13.1244C8.15064 15.1435 4.98375 18.028 2.48389 21.6576C2.37609 21.8486 2.21809 22.0064 2.027 22.1141C1.83591 22.2217 1.61902 22.275 1.39981 22.2681ZM18.763 57.0883C18.5794 57.0901 18.3976 57.0524 18.2298 56.9777C18.0621 56.9031 17.9123 56.7932 17.7907 56.6557C15.3738 54.1414 14.0638 52.5213 12.2069 49.0359C10.2839 45.488 9.29 41.1613 9.29 36.5173C9.29 27.9505 16.3461 20.9701 25.0151 20.9701C33.6841 20.9701 40.745 27.9505 40.745 36.5173C40.7505 36.7032 40.7186 36.8882 40.6512 37.0614C40.5839 37.2347 40.4825 37.3927 40.353 37.5261C40.2235 37.6594 40.0686 37.7655 39.8973 37.8379C39.7261 37.9103 39.5421 37.9476 39.3562 37.9476C39.1704 37.9476 38.9864 37.9103 38.8151 37.8379C38.6439 37.7655 38.489 37.6594 38.3595 37.5261C38.23 37.3927 38.1286 37.2347 38.0612 37.0614C37.9939 36.8882 37.962 36.7032 37.9675 36.5173C37.9675 29.537 32.1601 23.8546 25.0211 23.8546C17.8821 23.8546 12.0687 29.537 12.0687 36.5173C12.0687 40.671 12.9569 44.5073 14.6515 47.6225C16.4302 50.9396 17.6561 52.353 19.7918 54.6029C20.0451 54.8829 20.1853 55.2469 20.1853 55.6245C20.1853 56.002 20.0451 56.3661 19.7918 56.646C19.5191 56.9212 19.1503 57.0797 18.763 57.0883ZM38.6838 51.7521C35.3775 51.7521 32.4606 50.8867 30.0713 49.1849C28.0357 47.7581 26.3727 45.8631 25.2224 43.6595C24.072 41.4558 23.468 39.008 23.4611 36.5222C23.4533 36.3348 23.4835 36.1479 23.5498 35.9725C23.6161 35.7972 23.7172 35.637 23.8469 35.5017C23.9767 35.3665 24.1325 35.2588 24.305 35.1853C24.4774 35.1117 24.663 35.0738 24.8504 35.0738C25.0379 35.0738 25.2234 35.1117 25.3959 35.1853C25.5683 35.2588 25.7241 35.3665 25.8539 35.5017C25.9837 35.637 26.0848 35.7972 26.1511 35.9725C26.2174 36.1479 26.2476 36.3348 26.2398 36.5222C26.2444 38.5413 26.7369 40.5294 27.6752 42.3173C28.6135 44.1052 29.9699 45.6399 31.6289 46.7908C33.6011 48.1754 35.9075 48.834 38.6862 48.834C39.654 48.8168 40.6187 48.7203 41.5707 48.5455C42.3206 48.4013 43.0429 48.9205 43.1811 49.7282C43.2516 50.1009 43.1713 50.4863 42.9579 50.7999C42.7446 51.1136 42.4155 51.3298 42.043 51.4011C40.9363 51.6198 39.8118 51.7357 38.6838 51.7473V51.7521ZM33.0988 57.6893C32.9767 57.6842 32.8557 57.6648 32.7382 57.6316C28.3202 56.3624 25.4309 54.6606 22.4023 51.5742C18.5118 47.5648 16.3737 42.2286 16.3737 36.5173C16.3737 31.8445 20.2077 28.0371 24.9298 28.0371C29.6519 28.0371 33.487 31.8445 33.487 36.5173C33.487 39.6037 36.071 42.1132 39.2655 42.1132C42.46 42.1132 45.044 39.6037 45.044 36.5173C45.044 25.643 36.0145 16.8165 24.9021 16.8165C17.0119 16.8165 9.78877 21.374 6.53895 28.4409C5.45728 30.7773 4.89962 33.5175 4.89962 36.5173C4.89962 38.7672 5.09312 42.3151 6.76009 46.9302C7.03892 47.6802 6.67716 48.5167 5.95485 48.7763C5.78319 48.8417 5.60008 48.8717 5.41654 48.8645C5.23299 48.8573 5.05279 48.8131 4.88676 48.7345C4.72073 48.6559 4.5723 48.5446 4.45038 48.4072C4.32846 48.2698 4.23558 48.1092 4.1773 47.935C2.83683 44.2775 2.15013 40.4127 2.14857 36.5173C2.14857 33.056 2.78796 29.9071 4.03789 27.1717C7.7336 19.1193 15.9291 13.9032 24.9021 13.9032C37.5432 13.9032 47.8227 24.0277 47.8227 36.4885C47.8227 41.1613 43.9888 44.9688 39.2655 44.9688C34.5422 44.9688 30.7083 41.1613 30.7083 36.4885C30.7095 33.4021 28.1255 30.8879 24.931 30.8879C21.7364 30.8879 19.1524 33.3973 19.1524 36.4837C19.1524 41.4113 20.9865 46.0312 24.3481 49.4926C26.9921 52.204 29.516 53.6991 33.4329 54.8288C34.1828 55.0308 34.5999 55.8384 34.4052 56.5884C34.3445 56.8928 34.1822 57.1676 33.9448 57.3676C33.7074 57.5677 33.4091 57.6811 33.0988 57.6893Z" fill="black"/>
</svg>
